<svg xmlns="http://www.w3.org/2000/svg" xmlns:xlink="http://www.w3.org/1999/xlink" viewBox="0 0 325.86 369.66"><defs><style>.cls-1{fill:url(#radial-gradient);}.cls-2{fill:url(#Summer);}.cls-3{opacity:0.92;}.cls-11,.cls-14,.cls-4,.cls-9{fill:#fff;}.cls-5{fill:#fdcb07;}.cls-6{fill:#231f20;}.cls-7{fill:#f4f2ac;}.cls-8,.cls-9{font-size:93.76px;}.cls-10,.cls-12,.cls-8{fill:#f7931e;}.cls-10,.cls-11,.cls-12,.cls-8,.cls-9{stroke:#000;stroke-miterlimit:10;stroke-width:3px;font-family:AstounderSquaredBB-Bold, Astounder Squared BB;font-weight:700;}.cls-10,.cls-11{font-size:94.08px;}.cls-12{font-size:94px;}.cls-13{letter-spacing:-0.03em;}.cls-14{letter-spacing:-0.03em;}</style><radialGradient id="radial-gradient" cx="158.04" cy="190.62" r="154.04" gradientUnits="userSpaceOnUse"><stop offset="0" stop-color="#fff"/><stop offset="0.14" stop-color="#cfefed"/><stop offset="0.38" stop-color="#86d6d1"/><stop offset="0.59" stop-color="#4dc3ba"/><stop offset="0.77" stop-color="#23b5aa"/><stop offset="0.92" stop-color="#09aca1"/><stop offset="1" stop-color="#00a99d"/></radialGradient><radialGradient id="Summer" cx="158.04" cy="190.62" r="154.04" gradientUnits="userSpaceOnUse"><stop offset="0" stop-color="#fff"/><stop offset="0.09" stop-color="#ffedd8"/><stop offset="0.21" stop-color="#ffd5a7"/><stop offset="0.33" stop-color="#ffc17d"/><stop offset="0.46" stop-color="#ffb05b"/><stop offset="0.59" stop-color="#ffa340"/><stop offset="0.72" stop-color="#ff9a2d"/><stop offset="0.86" stop-color="#ff9522"/><stop offset="1" stop-color="#ff931e"/></radialGradient></defs><g id="Layer_2" data-name="Layer 2"><g id="Layer_1-2" data-name="Layer 1"><circle class="cls-1" cx="158.04" cy="190.62" r="154.04"/><path class="cls-2" d="M158,47.58A143,143,0,1,1,56.89,89.47,142.13,142.13,0,0,1,158,47.58m0-11a154,154,0,1,0,154,154,154,154,0,0,0-154-154Z"/><path d="M158,36.58a154,154,0,1,1-154,154,154,154,0,0,1,154-154m0-4A158,158,0,0,0,46.29,302.36,158,158,0,0,0,269.79,78.87,157,157,0,0,0,158,32.58Z"/><g class="cls-3"><path class="cls-4" d="M224.56,139.66a7.31,7.31,0,0,0-4.95-.72c-1.87.25-2.76-.77-3.58-2.43-.94-1.88-1.32-4.19-2.65-5.85a15.09,15.09,0,0,0-4.21-3.71c-3.26-1.86-7.35-2-11-1.31a14.85,14.85,0,0,0-5.33,2,26,26,0,0,1-2.17,1.63c-.42-.28-.83-.59-1.26-.85-7.14-3.81-16.47-3.94-23.28.69a48.35,48.35,0,0,0-5.23,4.57c-1.85,1.67-3.8,3.24-5.61,5-3.12,2.95-5.56,6.46-5.6,10.9,0,4.61,2.12,8.89,2.15,13.5,0,4.87-1.38,9.61-1.47,14.47a25.33,25.33,0,0,0,8.49,19.14c2.31,2,7.37,5.34,10,2.12,2-2.45.61-6.37.45-9.22-.08-1.38-.12-3.11.74-4.29,1.15-1.58,3.33-.8,4.85-.35s3.65.85,5.09-.38c1.59-1.37,1.89-3.6,2-5.56,0-.39,0-.78,0-1.17,2.21,1.4,4.89,2.39,7.49,1.56,2.86-.91,4.08-3.73,5.72-6s4.05-4.31,6.9-3.06c2.46,1.09,4.09,3.69,5.3,6,1.56,3,2.58,6.58,4.94,9,1.58,1.64,4.4,3,6.4,1.25s1.78-5.11,1.48-7.47a17.39,17.39,0,0,0-3.35-8.21c3.58.52,6-1.89,7.14-5.07a9.56,9.56,0,0,0,.34-5.06c-.16-.73-1-1.77-.31-2.15a14.85,14.85,0,0,0,2.38-1.69,9.69,9.69,0,0,0,3.1-9.62c-.6-2.91-2.19-6.37-5.07-7.64C222.9,138.63,227.33,140.88,224.56,139.66Z"/><path class="cls-5" d="M254.49,233.12c.4-3.78-2.05-7.26-3.55-10.43q-3.28-6.88-6.54-13.76-6.53-13.77-13-27.55-3.56-7.56-7.1-15.13c-.08-.16-.15-.32-.22-.47a21.68,21.68,0,0,1-2.06,3.48c-1.17,1.4-2.72,1.59-4.39,1.91,2.51,4,4.59,9.11,2.37,13.73-1.16,2.43-4.12,4.19-6.71,2.76-2.78-1.53-4-5.22-5.24-7.94-1.32-2.94-3-7.13-6-8.66s-5.64,1.27-7.26,3.51c-1.93,2.65-4.23,5.63-7.93,5-2-.35-3.67-1.7-5.33-2.75.28,2.55.89,5.35-1.21,7.36-2.67,2.56-8.08-1.78-9.93,1.61a6.51,6.51,0,0,0-.3,3.86c.26,2.22.92,4.59.5,6.83a6.21,6.21,0,0,1-.77,1.95c-.21.37.36,1.41.47,1.74.8,2.38,1.56,4.78,2.32,7.17,4.93,15.5,11,30.58,16.46,45.88.66,1.83,1.39,4,3.2,5.21,2.93,1.9,9.31-.51,12.36-1.16a128.42,128.42,0,0,0,15.64-4.44,144.19,144.19,0,0,0,20.64-9.19q5.1-2.78,10-5.9C252.94,236.37,254.24,235.49,254.49,233.12Z"/><path class="cls-5" d="M246.23,163.2c-1.2-2.15-2.17-4.5-4.28-5.94a10.83,10.83,0,0,0-7-1.43c-4.25.34-8.32,1.8-12.38,3a12.15,12.15,0,0,1,1.4,3,14.45,14.45,0,0,1,.09,3.54,31.94,31.94,0,0,1,7.8-1.62,12.64,12.64,0,0,1,5.37.46,8.38,8.38,0,0,1,3.94,3.86,113.57,113.57,0,0,1,11,22.15c1.16,3.36,2.36,7.06.8,10.47-1.26,2.74-3.5,4.94-5.48,7.17l-2,2.29c-.18.21.36,1,.47,1.25.75,1.61,1.51,3.23,2.26,4.85a61.23,61.23,0,0,0,7.51-8.65,40.08,40.08,0,0,0,3.71-5.76,10.87,10.87,0,0,0,.56-7.89c-2.83-10.83-8.24-21-13.65-30.73C246,162.87,250.76,171.34,246.23,163.2Z"/><path class="cls-6" d="M220,160.1l.06.12.11.11C220.1,160.25,220.05,160.17,220,160.1Z"/><path class="cls-6" d="M255.45,232.47l-1,.65.53,1.11C255.16,233.64,255.31,233.05,255.45,232.47Z"/><path class="cls-6" d="M192.24,258.39l-.38-1.07c-.35,0-.7.09-1.05.12Z"/><path class="cls-7" d="M177.49,191.08l27.85,50.48s-6.89,3.78-11.05.93Z"/><path class="cls-7" d="M196.59,251.34l.4,3.19s26.58-1.09,53-22.14C250,232.39,215.57,252.91,196.59,251.34Z"/><path class="cls-7" d="M228.54,159.66a20.12,20.12,0,0,1,7.14-1.59c3.31.05,5.55,2,7.35,4.55a61,61,0,0,1,7.86,16c-3-4.83-5.67-9.91-8.84-14.67-1.55-2.32-3.23-4.31-6.16-4.72C233.45,158.87,231,159.37,228.54,159.66Z"/><path class="cls-6" d="M171.08,135.55a2.39,2.39,0,0,0-1.08,2.91,1.65,1.65,0,0,1,.77-2c.75-.29,1.69.31,2.09,1.34a1.81,1.81,0,0,1-.64,2.41c-.75.29-1.66-.3-2.07-1.3a.06.06,0,0,0,0,0c.57,1.48,1.91,2.35,3,1.93s1.49-2,.92-3.44S172.16,135.13,171.08,135.55Z"/><path class="cls-6" d="M183.36,155.9a2,2,0,0,0-.89,2.38,1.37,1.37,0,0,1,.63-1.61c.62-.24,1.38.25,1.71,1.1a1.48,1.48,0,0,1-.53,2c-.61.23-1.35-.24-1.69-1.06a0,0,0,0,1,0,0c.47,1.21,1.56,1.92,2.45,1.58s1.22-1.6.75-2.81S184.24,155.56,183.36,155.9Z"/><path class="cls-6" d="M183.33,144.28a1,1,0,0,0-.43,1.16.67.67,0,0,1,.3-.78c.3-.12.67.12.83.53a.72.72,0,0,1-.25,1c-.3.11-.66-.12-.82-.52v0c.23.59.76.93,1.19.76a1,1,0,0,0,.37-1.36C184.29,144.46,183.76,144.12,183.33,144.28Z"/><path class="cls-6" d="M180.7,135.86a1.29,1.29,0,0,0-.57,1.55.86.86,0,0,1,.41-1c.4-.16.9.16,1.11.71a1,1,0,0,1-.34,1.28c-.4.16-.89-.15-1.1-.69v0c.31.79,1,1.26,1.6,1a1.37,1.37,0,0,0,.49-1.83C182,136.1,181.28,135.64,180.7,135.86Z"/><path class="cls-6" d="M161.35,180.83a1.43,1.43,0,0,0-.64,1.71,1,1,0,0,1,.46-1.15c.44-.17,1,.18,1.22.79a1.05,1.05,0,0,1-.37,1.41c-.44.17-1-.17-1.22-.77a0,0,0,0,0,0,0c.33.87,1.12,1.38,1.76,1.13a1.52,1.52,0,0,0,.54-2C162.77,181.09,162,180.59,161.35,180.83Z"/><path class="cls-6" d="M159.66,168.72a2,2,0,0,0-.88,2.38,1.37,1.37,0,0,1,.63-1.61c.62-.24,1.38.25,1.71,1.1a1.48,1.48,0,0,1-.53,2c-.61.23-1.35-.24-1.69-1.06,0,0,0,0,0,0,.47,1.21,1.56,1.91,2.45,1.57s1.22-1.6.75-2.81S160.55,168.38,159.66,168.72Z"/><path class="cls-6" d="M163.29,165.31a1,1,0,0,0-.43,1.16.67.67,0,0,1,.3-.78c.3-.11.67.12.83.54a.71.71,0,0,1-.25,1c-.3.11-.66-.12-.82-.52v0c.23.59.76.93,1.19.77a1,1,0,0,0,.37-1.37C164.25,165.49,163.72,165.15,163.29,165.31Z"/><path class="cls-6" d="M164.88,172.64a1.29,1.29,0,0,0-.57,1.56.88.88,0,0,1,.41-1c.4-.15.9.17,1.11.72a1,1,0,0,1-.34,1.28,1,1,0,0,1-1.1-.7v0c.31.79,1,1.25,1.6,1a1.39,1.39,0,0,0,.49-1.84C166.17,172.88,165.46,172.42,164.88,172.64Z"/><path class="cls-6" d="M216.83,242c-5.17,1.81-14.58,3.81-14.58,3.81-5.95,1.61-9.14-1.61-10.71-4.27-5.08-13.77-10.32-27.53-16.32-40.91,4.21,15.2,15.89,49.55,16.3,49.54,1.63,0,3.25-.11,4.87-.28a75.35,75.35,0,0,0,13.78-2.8,113,113,0,0,0,14.69-5.55,115.09,115.09,0,0,0,22.52-14.12,212,212,0,0,1-19.69,10.34C224.16,239.38,220.5,240.72,216.83,242Z"/><path class="cls-6" d="M258.18,183.8c-3.51-8.84-7.82-17.92-13.29-25.73-4.16-5.93-11.61-4-18.08-1.62a9.15,9.15,0,0,0,3.59-6.89,13.41,13.41,0,0,0-3.45-9.89,10.78,10.78,0,0,0-2.68-2.17c-1.93-1.08-4.06-.91-6.16-.66a10,10,0,0,1-1.31-2.64c-.43-1-.81-1.93-1.25-2.89a8.67,8.67,0,0,0-1.07-1.78,13.42,13.42,0,0,0-7.64-5.14,19.11,19.11,0,0,0-11.16,1.29,31.71,31.71,0,0,0-4.39,2.47c-.56-.35-1.09-.64-1.53-.88a22.75,22.75,0,0,0-8.32-2.38c-6-.62-13.11.46-17.78,4.53-2.53,2.2-5.06,4.37-7.63,6.51a25.8,25.8,0,0,0-5.47,5.86,15.81,15.81,0,0,0-2.23,11c.44,3.17,1.69,6.19,1.78,9.4.12,4.44-1.38,8.73-1.55,13.15a28.4,28.4,0,0,0,.74,7.29c1.65,7.34,6.69,15.88,14.4,18.17a6.58,6.58,0,0,0,5-.39c.78,2.22,1.56,4.45,2.33,6.67,3.79,10.85,7.65,21.67,11.38,32.54,2,5.7,4.41,20.29,11.86,20.71A44.27,44.27,0,0,0,206.11,259c7.27-1.81,13.89-4.73,20.88-7.43a129.72,129.72,0,0,0,25.54-13,7.77,7.77,0,0,0,3.38-4.67c.63-2.58-.07-5.47-2.07-8.57l-4.11-8.86h0l6-7.08c2.7-3.3,6-8,6-12.56S259.79,187.84,258.18,183.8Zm-94.63,13.77c-7.14-3.31-11.84-12.44-11.88-20,0-6.12,2.26-12.19,1.14-18.29-.72-4-2.35-7.75-1.61-11.86a13.39,13.39,0,0,1,3.5-6.52c2.74-2.92,6-5.26,8.81-8.07a19.56,19.56,0,0,1,6.78-4.6,22.4,22.4,0,0,1,18.51,1.21l.88.6a6.27,6.27,0,0,0-1,4.24c.27-3.12,4.38-5.73,5.13-6.1a17.24,17.24,0,0,1,8-1.72,12.25,12.25,0,0,1,10.48,5.3c1.41,2.49,1.8,5.92,4.17,7.76.91.71,1.5.48,2.6.35a5.93,5.93,0,0,1,4.19.6c2.62,1.16,4.21,4.75,4.65,7.31a10.5,10.5,0,0,1-.63,5.66c-2.24,3.65-5.84,5.1-9.82,6.36.75-.07,1.21-.14,1.46-.19a23.89,23.89,0,0,0,3.17-.72,7.94,7.94,0,0,1,.64,5.41c-.66,2.38-2.54,7-8.32,4.74-.31-.12,1.35,2.3,1.76,2.79,2,2.41,2.86,7.09,2.61,10.12-.49,5.8-5.34,4.44-7.68.28-1.82-3.23-3-6.78-5.19-9.79-1.87-2.54-4.74-4.84-8-3.36-2.25,1-3.61,3.14-4.91,5.13a10.89,10.89,0,0,1-2.69,3.19c-2.65,1.55-5.3.73-7.77-.81l-.13-.07c-.14-.54-.28-1.08-.43-1.63-.28-1.07-.62-1.39-.9-2.46,0,0,.16,6.68-.38,8.42-.37,1.18-1,2.52-2.31,2.88-1.82.46-3.74-.64-5.51-.91-5.24-.48-4.53,5.27-4.08,8.75.21,1.72.69,4.3-.52,5.77S165,198.24,163.55,197.57ZM250.87,236c-2.53,3-23,12-29.82,14.7-7,2.82-14.11,5.28-21.64,5.89s-9.65-3.91-11.39-10.26c-.89-3.25-2-6.43-3.13-9.6-2.4-6.92-5-13.75-7.38-20.69-1.88-5.55-4.39-12.38-6.42-18.13a6.74,6.74,0,0,0,.7-2.82,45.93,45.93,0,0,0-.66-6.72c-.17-1.8-.14-3.45,2-3.08,3.59.69,6.89,1.56,9-2.23a6.67,6.67,0,0,0,.77-4.2,7.84,7.84,0,0,0,7,1.19c2.43-.78,4-2.77,5.43-4.79,1.85-2.63,4.4-5.63,7.27-2.45,2.45,2.73,3.73,6.4,5.28,9.66,2,4.18,6.4,8.59,11.1,5s3.4-11.48.6-15.91a5.81,5.81,0,0,0,3.64-2.48c.22-.32.42-.66.61-1l27.22,58.62.1.19C252.68,229.66,252.94,233.62,250.87,236Zm-5.23-28.35L226.19,165.8c3.23-.92,8.65-2.58,11.52.08.7.53,3.15,4.81,3.87,6.09,2.43,4.32,4.67,8.78,6.67,13.31a68,68,0,0,1,2.72,7c.53,1.71,1.34,3.86,1,5.68C251.39,201.7,248,204.72,245.64,207.69ZM257.56,191a19.1,19.1,0,0,1,1.33,6.57,12.09,12.09,0,0,1-2.29,5.51c-1.07,1.66-2.45,3.59-3.86,5.4-4.19,3.09-5.81,1.75-6,1.53l0,0c1-1.15,2-2.31,3.06-3.45,2.91-3.26,5.72-6.74,4.93-11.36A54.68,54.68,0,0,0,250,181.68a131.75,131.75,0,0,0-7-13.29c-1.13-1.87-2.3-4.06-4.19-5.26a9.52,9.52,0,0,0-5.5-1.28,29,29,0,0,0-7.08.89,7,7,0,0,1,1.31-4.55,34,34,0,0,1,7.85-1.56,8.57,8.57,0,0,1,6.17,1.64c1.49,1.23,2.42,3.44,3.34,5.09C249.77,172.13,254.53,181.4,257.56,191Z"/><path class="cls-6" d="M168.31,158c3.79,0,8.51-3.47,5.84-7.53-.18,3.31-2.64,4.9-5.85,4.88a6.37,6.37,0,0,1-6.53-4.76C160.36,154.77,164.37,158,168.31,158Z"/><path class="cls-6" d="M179.19,165.87a9,9,0,0,0,8.27,2.67c4.22-.56,7.07-5,7.11-8.95,3.91.78,9.63-1.71,9.88-6.24a12.46,12.46,0,0,0,.1-1.73c0-.73,0-.42.59-.56a8.32,8.32,0,0,0,2.74-1.17c2.35-1.62,4-4.77,2.62-7.52.06.1.11.17,0-.11a9.68,9.68,0,0,0-1.17-1.39c1.66,2.95.47,6-2.65,7.43-1.62.72-3.07.4-4.75.12.05,3,.31,6.18-2.89,7.59a7.29,7.29,0,0,1-3,.66,33.91,33.91,0,0,1-3.86-.65s-.38,3.29-.4,4.3a6.88,6.88,0,0,1-2.63,5.21,8.81,8.81,0,0,1-5.57,1.82A11,11,0,0,1,179.19,165.87Z"/></g><text class="cls-8" transform="matrix(0.48, 0.88, -0.88, 0.48, 43.23, 244.27)">c</text><text class="cls-9" transform="translate(76.94 296.64) rotate(31.33)">a</text><text class="cls-9" transform="translate(134.29 325.69) rotate(1.27)">r</text><text class="cls-9" transform="translate(199.33 321.4) rotate(-29.46)">d</text><text class="cls-9" transform="matrix(0.5, -0.86, 0.86, 0.5, 252.25, 285.05)">s</text><text class="cls-10" transform="translate(87.47 167.19) rotate(-63.3)">s</text><text class="cls-11" transform="translate(100.23 136.41) rotate(-36.01)">p</text><text class="cls-11" transform="matrix(0.99, -0.16, 0.16, 0.99, 125.74, 115.1)">o</text><text class="cls-11" transform="translate(156.5 107.26) rotate(17.42)">r</text><text class="cls-11" transform="matrix(0.72, 0.69, -0.69, 0.72, 189.63, 115.74)">t</text><text class="cls-11" transform="translate(212.02 133.19) rotate(68.4)">s</text><text class="cls-12" transform="translate(40.72 222.69)"><tspan class="cls-13">b</tspan><tspan class="cls-14" x="42.58" y="0">a</tspan><tspan class="cls-4" x="86.39" y="0">r</tspan></text></g></g></svg>